<svg id="Layer_1" data-name="Layer 1" xmlns="http://www.w3.org/2000/svg" viewBox="0 0 400 332.28"><defs><style>.cls-1{fill:#fe9900;}</style></defs><title>amazon-logo</title><path d="M265.53,122.68c-9.68.76-20.85,1.5-32,3-17.12,2.21-34.24,5.22-48.39,11.91C157.58,148.81,139,172.65,139,207.71c0,44,28.3,66.35,64,66.35a121.56,121.56,0,0,0,30.52-3.71c14.16-4.48,26.07-12.67,40.21-27.6,8.19,11.2,10.41,16.43,24.58,28.34,3.73,1.5,7.45,1.5,10.41-.74,8.93-7.46,24.56-20.87,32.77-28.33,3.71-3,3-7.46.74-11.2-8.2-10.43-16.38-19.4-16.38-39.51V124.19c0-28.36,2.21-54.45-18.61-73.82C290.1,34.68,263.3,28.72,242.46,28.72h-8.95c-38,2.25-78.17,18.64-87.12,65.63-1.46,6,3,8.2,6,9l41.68,5.22c4.47-.77,6.69-4.49,7.43-8.23,3.74-16.39,17.14-24.58,32-26.09h3c8.9,0,18.59,3.74,23.81,11.17,5.93,9,5.21,20.9,5.21,31.34v6h0Zm0,43.28c0,17.16.72,30.57-8.2,45.46-5.21,10.44-14.14,17.15-23.83,19.4-1.48,0-3.7.77-5.95.77-16.37,0-26.08-12.67-26.08-31.33,0-23.86,14.16-35.06,32-40.28,9.69-2.24,20.86-3,32-3v9h0Z" transform="translate(-28.96 -28.72)"/><path class="cls-1" d="M402.67,343.16c18.2-15.4,25.89-43.35,26.29-57.94v-2.44a13.2,13.2,0,0,0-1.6-6.88c-3.65-4.45-30.37-8.52-53.4-1.63a63.81,63.81,0,0,0-17.4,8.51c-4.05,2.85-3.24,6.46.8,6.08,4.45-.82,10.13-1.21,16.59-2,14.16-1.18,30.74-1.59,34.78,3.66,5.64,6.87-6.47,36.87-11.75,49.84-1.59,4.07,2,5.7,5.68,2.85Z" transform="translate(-28.96 -28.72)"/><path class="cls-1" d="M31,285.23C83.13,332.63,151.89,361,228.76,361c47.72,0,102.73-13.38,145.2-38.9a149.91,149.91,0,0,0,16.57-11c7.29-5.25.82-13.38-6.46-10.15-3.23,1.21-6.87,2.86-10.1,4.07a389.74,389.74,0,0,1-140.76,26.76c-72,0-141.56-19.87-197.79-52.68-5.26-2.82-8.91,2.43-4.44,6.08Z" transform="translate(-28.96 -28.72)"/></svg>