<?xml version="1.0" encoding="utf-8"?>
<!-- Generator: Adobe Illustrator 21.0.2, SVG Export Plug-In . SVG Version: 6.00 Build 0)  -->
<svg version="1.1" xmlns="http://www.w3.org/2000/svg" xmlns:xlink="http://www.w3.org/1999/xlink" x="0px" y="0px"
	 viewBox="0 0 949.3 183.3" style="enable-background:new 0 0 949.3 183.3;" xml:space="preserve">
<style type="text/css">
	.st0{font-family:'Verdana-Bold';}
	.st1{font-size:113px;}
	.st2{fill:#FFFFFF;}
	.st3{fill:#94BA2E;}
	.st4{font-family:'Verdana';}
	.st5{font-size:56px;}
</style>
<g id="Layer_1">
</g>
<g id="Isolation_Mode">
	<text transform="matrix(0.8869 0 0 1 175.1691 95.7056)"><tspan x="0" y="0" class="st0 st1">auspreiser</tspan><tspan x="670.1" y="0" class="st2 st0 st1">.</tspan><tspan x="710.9" y="0" class="st3 st0 st1">de</tspan></text>
	<g>
		<path class="st2" d="M172.3,83.6l-51-50.9c-1.4-1.3-3.3-1.9-5.1-1.7l-9.9,1.9c0.1,2.9,0.1,5.9,0.1,10.6v2.9c2.8,3,3.2,7.1,0.3,10
			c-2.9,3-7.7,3-10.7,0.1c-3-2.9-3-7.7-0.1-10.7c0.2-0.2,0.5-0.4,0.7-0.6v-2.1c0-4,0-6.7-0.1-9.1l-7.8,1.2c-1.7,0.3-3.1,1.7-3.4,3.4
			l-3.9,27.7c-0.2,1.9,0.5,3.7,1.7,5.1l50.7,50.6c1.2,1.2,3.1,1.2,4.3,0l34.1-34.2C173.5,86.7,173.5,84.8,172.3,83.6z M146.7,89.7
			c-3.4,3.6-7.1,5.7-11.2,6.3c-3.8,0.6-7.7-0.1-11.5-2.2l-2.6,2.7l-2.9-4.2l1.3-1.3c-0.6-0.5-1.1-0.9-1.6-1.4
			c-0.4-0.4-0.7-0.7-1.1-1.1l-2,2l-2.9-4.2l1.8-1.9c-2.3-3.5-3.4-7.6-3-11.8c0.4-4.2,2.4-8,5.8-11.6c2.8-2.9,6.3-5.2,10-6.8l6.4,6.2
			l-0.7,0.7c-4.2,0.6-7.3,1.9-9.2,3.9c-3.3,3.4-3.9,7.3-1.9,11.6l9.6-9.9l2.9,4.2l-9.7,10c0.3,0.4,0.7,0.8,1.1,1.1
			c0.5,0.5,1.1,1,1.6,1.4l9.1-9.4l2.9,4.2l-7.5,7.8c4.2,1.5,7.8,0.6,10.9-2.6c2-2,3.1-5.1,3.5-9.3l0.7-0.7l6.4,6.2
			C151.7,83.3,149.5,86.8,146.7,89.7z"/>
		<path class="st2" d="M76.9,64.7c-1.2,0-2.3-0.6-3-1.5c-5-6.9-7.3-15.4-6.6-24c0.6-7.8,3.4-14.6,7.4-17.9
			c4.5-3.7,10.4-5.3,16.1-4.4c4.6,0.7,8.6,3.3,11.1,7.2c5.4,8.5,2.6,26.4,2.2,28.4c-0.4,2.1-2.3,3.4-4.4,3.1
			c-2.1-0.4-3.4-2.3-3.1-4.4l0,0l0,0c1.1-6.5,1.8-18.5-1.1-23.1c-1.3-2.1-3.5-3.4-5.9-3.8c-3.6-0.5-7.3,0.5-10.1,2.8
			C75.3,30.5,71,46.4,80,58.6c1.2,1.7,0.9,4-0.8,5.3C78.5,64.4,77.8,64.6,76.9,64.7L76.9,64.7z"/>
	</g>
	<text transform="matrix(0.9002 0 0 1 173.5227 157.7432)" class="st2 st4 st5">Preisvergleich &amp; Produktsuche</text>
</g>
</svg>
