<?xml version="1.0" encoding="utf-8"?>
<!-- Generator: Adobe Illustrator 21.0.2, SVG Export Plug-In . SVG Version: 6.00 Build 0)  -->
<svg version="1.1" id="Layer_1" xmlns="http://www.w3.org/2000/svg" xmlns:xlink="http://www.w3.org/1999/xlink" x="0px" y="0px"
	 viewBox="0 0 2300.1 2190.7" style="enable-background:new 0 0 2300.1 2190.7;" xml:space="preserve">
<style type="text/css">
	.st0{fill:#94BB3D;stroke:#FFFFFF;stroke-width:1.4859;stroke-miterlimit:10;}
</style>
<path class="st0" d="M2246.8,1954l-574.1-513.5c111.1-147.7,176.7-330.1,176.7-527.5c0-492.4-408.3-891.6-912-891.6
	S25.3,420.6,25.3,913s408.3,891.6,912,891.6c203,0,390.5-64.8,542-174.5l591.1,523c0,0,98.5,55.7,178-39.6
	C2308.8,2026.5,2246.8,1954,2246.8,1954z M930.5,1675.6c-432.9,0-783.8-343.1-783.8-766.3s350.9-766.3,783.8-766.3
	s783.8,343.1,783.8,766.3S1363.4,1675.6,930.5,1675.6z"/>
</svg>
