<svg id="svg1978" xmlns="http://www.w3.org/2000/svg" viewBox="0 0 486.79 209.51"><defs><style>.cls-1{fill:#ec1b24;}</style></defs><title>real-logo</title><g id="layer1"><g id="g22313"><path id="path14743" class="cls-1" d="M78.32,83.09l7.46-37H35.3L5.31,210.7H57.52L76.1,122.93s13.49-41.11,46.66-32.22L132.28,42s-40.47-3-54,41.11h0" transform="translate(-5.31 -5.32)"/><path id="path14745" class="cls-1" d="M238.62,166.1c-14.6,7.62-33,11.27-46.19,11.27-30.32,0-36.82-13.65-35.71-31.27h101.9c2.86-9.68,5.87-24,6.51-30.63,4.76-49.36-21.59-70.79-59.36-70.95-64.12,0-91.9,58.25-95.39,96-4,40.95,18.73,74.28,66.82,74.28,14.44,0,33.17-3,51.27-9Zm-75.71-51.9c5.08-15.55,18.25-32.06,39.84-32.06,18.09,0,22.86,14.6,21.11,32.06" transform="translate(-5.31 -5.32)"/><path id="path14747" class="cls-1" d="M354,210.86h41.43c5.71-49,18.57-85.55,18.57-111.26,0-40-28.73-55.23-63.65-55.23-22.7,0-38.73,3.81-53.65,9.36l-5.08,40.95c17-9.68,29.36-12.86,47.62-12.86,16.51,0,27,9.36,27,21a22.13,22.13,0,0,1-.63,6.51c-7-.48-17.14-1.43-27.3-1.43-44.6,0-80.63,19.68-80.63,59.68,0,31.59,17.46,47.14,48.89,47.14,19.68,0,38.57-7.78,49.2-26.51v-.63l.63.63Zm-48.57-50c0-14.28,17.78-24,41.9-23,3,0,9.21,0,13.49,1-3.65,21.74-16.51,38.41-38.25,38.41a16.9,16.9,0,0,1-17.14-16.35" transform="translate(-5.31 -5.32)"/><path id="path14749" class="cls-1" d="M403.06,210.7h51.11L492.1,5.32H440.83" transform="translate(-5.31 -5.32)"/></g></g></svg>